<?xml version="1.0" standalone="no"?>
<!DOCTYPE svg PUBLIC "-//W3C//DTD SVG 20010904//EN"
 "http://www.w3.org/TR/2001/REC-SVG-20010904/DTD/svg10.dtd">
<svg version="1.0" xmlns="http://www.w3.org/2000/svg"
 width="1200.000000pt" height="1200.000000pt" viewBox="0 0 1200.000000 1200.000000"
 preserveAspectRatio="xMidYMid meet">

<g transform="translate(0.000000,1200.000000) scale(0.100000,-0.100000)"
fill="#000000" stroke="none">
<path d="M5700 11834 c-981 -58 -1885 -334 -2701 -824 -267 -160 -499 -326
-764 -546 -162 -134 -546 -517 -687 -684 -716 -850 -1170 -1854 -1327 -2940
-44 -301 -55 -471 -55 -840 0 -369 11 -539 55 -840 158 -1088 607 -2082 1327
-2940 140 -166 524 -549 687 -684 715 -593 1487 -988 2349 -1202 500 -123 876
-168 1416 -168 540 0 916 45 1416 168 862 214 1634 609 2349 1202 163 135 547
518 687 684 721 858 1169 1852 1327 2940 44 301 55 471 55 840 0 369 -11 539
-55 840 -157 1086 -611 2090 -1327 2940 -141 167 -525 550 -687 684 -949 787
-2006 1230 -3225 1351 -148 15 -699 27 -840 19z m840 -79 c1085 -106 2079
-491 2937 -1139 1274 -961 2097 -2406 2268 -3978 223 -2062 -651 -4060 -2315
-5290 -849 -627 -1816 -996 -2900 -1104 -246 -25 -814 -25 -1060 0 -992 99
-1876 412 -2677 948 -1421 949 -2355 2485 -2538 4170 -221 2041 634 4021 2268
5254 921 695 2017 1094 3182 1158 154 8 677 -4 835 -19z"/>
<path d="M8555 8886 c-206 -30 -356 -92 -464 -192 -82 -77 -125 -147 -151
-248 -52 -204 -2 -396 137 -526 114 -107 266 -168 598 -239 206 -45 288 -73
327 -112 59 -58 22 -143 -73 -170 -68 -19 -273 -17 -335 4 -79 27 -118 76
-130 165 l-7 52 -283 0 -284 0 0 -52 c1 -147 65 -305 162 -402 139 -137 341
-200 683 -213 387 -14 663 80 800 272 55 77 80 134 100 229 54 262 -39 468
-261 583 -104 54 -203 86 -404 129 -294 62 -368 88 -409 140 -43 54 -11 126
70 158 57 23 177 31 236 17 96 -24 162 -94 163 -174 l0 -27 283 2 282 3 -3 65
c-5 129 -46 224 -141 323 -93 98 -217 160 -396 199 -118 25 -375 32 -500 14z"/>
<path d="M2480 7925 l0 -945 825 0 825 0 0 225 0 225 -520 0 -520 0 0 145 0
145 440 0 440 0 0 215 0 215 -440 0 -440 0 0 135 0 135 515 0 515 0 0 225 0
225 -820 0 -820 0 0 -945z"/>
<path d="M4836 8862 c-4 -6 -522 -1429 -647 -1774 l-38 -108 308 0 309 0 15
48 c9 26 27 86 42 135 l26 87 329 0 329 0 16 -57 c10 -32 27 -92 39 -133 l22
-75 322 -3 322 -2 -36 97 c-19 54 -173 478 -342 943 l-307 845 -352 3 c-193 1
-354 -1 -357 -6z m444 -839 c51 -175 95 -326 98 -335 4 -17 -10 -18 -197 -18
-110 0 -201 3 -201 8 0 18 195 662 200 662 4 0 49 -143 100 -317z"/>
<path d="M5980 8630 l0 -240 310 0 310 0 0 -705 0 -705 305 0 305 0 0 705 0
705 310 0 310 0 0 240 0 240 -925 0 -925 0 0 -240z"/>
<path d="M2482 5988 l3 -943 700 0 700 0 65 23 c88 32 145 66 208 126 99 94
143 201 143 352 0 96 -10 155 -37 219 -43 104 -144 193 -257 229 -31 10 -57
21 -57 25 0 4 18 13 39 20 21 6 66 29 99 51 101 67 159 179 169 325 16 231
-99 398 -337 489 -54 20 -71 21 -748 24 l-692 3 2 -943z m1091 509 c47 -31 67
-74 67 -146 0 -46 -5 -72 -20 -96 -37 -60 -62 -65 -309 -65 l-221 0 0 166 0
165 228 -3 c199 -3 231 -5 255 -21z m48 -720 c86 -57 93 -194 15 -267 l-28
-25 -259 -3 -259 -3 0 161 0 160 249 0 c241 0 249 -1 282 -23z"/>
<path d="M4292 6713 c77 -120 246 -380 374 -579 l234 -361 0 -366 0 -367 305
0 305 0 0 370 0 371 358 562 c197 309 362 568 366 575 6 10 -59 12 -324 10
l-332 -3 -176 -308 c-97 -169 -181 -308 -186 -308 -6 -1 -90 139 -189 310
l-179 311 -349 0 -348 0 141 -217z"/>
<path d="M2996 4992 c-4 -6 -522 -1429 -647 -1774 l-38 -108 308 0 309 0 15
48 c9 26 27 86 42 135 l26 87 329 0 329 0 16 -57 c10 -32 27 -92 39 -133 l22
-75 322 -3 322 -2 -36 97 c-19 54 -173 478 -342 943 l-307 845 -352 3 c-193 1
-354 -1 -357 -6z m444 -839 c51 -175 95 -326 98 -335 4 -17 -10 -18 -197 -18
-110 0 -201 3 -201 8 0 18 195 662 200 662 4 0 49 -143 100 -317z"/>
<path d="M4470 4055 l0 -945 790 0 790 0 0 240 0 240 -485 0 -485 0 0 705 0
705 -305 0 -305 0 0 -945z"/>
<path d="M6090 4055 l0 -945 825 0 825 0 0 225 0 225 -520 0 -520 0 0 145 0
145 440 0 440 0 0 215 0 215 -440 0 -440 0 0 135 0 135 515 0 515 0 0 225 0
225 -820 0 -820 0 0 -945z"/>
<path d="M7846 4988 c4 -7 137 -203 296 -436 159 -232 291 -428 294 -435 2 -7
-53 -98 -124 -202 -70 -105 -221 -328 -335 -498 l-208 -307 342 2 343 3 168
285 c93 157 173 289 177 293 5 5 86 -125 182 -287 l174 -295 368 -1 c292 0
367 3 361 13 -5 6 -152 226 -329 487 -177 261 -325 480 -329 487 -6 11 189
303 541 811 l64 92 -340 0 -339 0 -143 -240 c-79 -132 -147 -239 -152 -237 -4
1 -71 108 -147 237 l-139 235 -366 3 c-293 2 -365 0 -359 -10z"/>
</g>
</svg>
